<svg xmlns="http://www.w3.org/2000/svg" width="1000" height="224" viewBox="0 0 1000 224" class="WaveDrom" xmlns:xlink="http://www.w3.org/1999/xlink"><g transform="translate(0.5,0.5)" text-anchor="middle" font-size="14" font-family="sans-serif" font-weight="normal"><g transform="translate(4,182)"><g stroke="black" stroke-width="1" stroke-linecap="round"><line x2="991"></line><line y2="26"></line><line x2="991" y1="26" y2="26"></line><line x1="991" x2="991" y2="26"></line><line x1="960" x2="960" y2="3"></line><line x1="960" x2="960" y1="26" y2="23"></line><line x1="929" x2="929" y2="3"></line><line x1="929" x2="929" y1="26" y2="23"></line><line x1="898" x2="898" y2="3"></line><line x1="898" x2="898" y1="26" y2="23"></line><line x1="867" x2="867" y2="3"></line><line x1="867" x2="867" y1="26" y2="23"></line><line x1="836" x2="836" y2="3"></line><line x1="836" x2="836" y1="26" y2="23"></line><line x1="805" x2="805" y2="3"></line><line x1="805" x2="805" y1="26" y2="23"></line><line x1="774" x2="774" y2="3"></line><line x1="774" x2="774" y1="26" y2="23"></line><line x1="743" x2="743" y2="26"></line><line x1="712" x2="712" y2="3"></line><line x1="712" x2="712" y1="26" y2="23"></line><line x1="681" x2="681" y2="3"></line><line x1="681" x2="681" y1="26" y2="23"></line><line x1="650" x2="650" y2="3"></line><line x1="650" x2="650" y1="26" y2="23"></line><line x1="619" x2="619" y2="26"></line><line x1="588" x2="588" y2="3"></line><line x1="588" x2="588" y1="26" y2="23"></line><line x1="557" x2="557" y2="3"></line><line x1="557" x2="557" y1="26" y2="23"></line><line x1="526" x2="526" y2="3"></line><line x1="526" x2="526" y1="26" y2="23"></line><line x1="496" x2="496" y2="26"></line><line x1="465" x2="465" y2="3"></line><line x1="465" x2="465" y1="26" y2="23"></line><line x1="434" x2="434" y2="3"></line><line x1="434" x2="434" y1="26" y2="23"></line><line x1="403" x2="403" y2="3"></line><line x1="403" x2="403" y1="26" y2="23"></line><line x1="372" x2="372" y2="26"></line><line x1="341" x2="341" y2="3"></line><line x1="341" x2="341" y1="26" y2="23"></line><line x1="310" x2="310" y2="3"></line><line x1="310" x2="310" y1="26" y2="23"></line><line x1="279" x2="279" y2="3"></line><line x1="279" x2="279" y1="26" y2="23"></line><line x1="248" x2="248" y2="26"></line><line x1="217" x2="217" y2="3"></line><line x1="217" x2="217" y1="26" y2="23"></line><line x1="186" x2="186" y2="3"></line><line x1="186" x2="186" y1="26" y2="23"></line><line x1="155" x2="155" y2="3"></line><line x1="155" x2="155" y1="26" y2="23"></line><line x1="124" x2="124" y2="26"></line><line x1="93" x2="93" y2="3"></line><line x1="93" x2="93" y1="26" y2="23"></line><line x1="62" x2="62" y2="3"></line><line x1="62" x2="62" y1="26" y2="23"></line><line x1="31" x2="31" y2="3"></line><line x1="31" x2="31" y1="26" y2="23"></line></g><g><g><rect x="743" width="248" height="26" style="fill-opacity:0.1"></rect><rect x="619" width="124" height="26" style="fill-opacity:0.1;fill:hsl(45,100%,50%)"></rect><rect x="496" width="124" height="26" style="fill-opacity:0.1;fill:hsl(45,100%,50%)"></rect><rect x="372" width="124" height="26" style="fill-opacity:0.1;fill:hsl(45,100%,50%)"></rect><rect x="248" width="124" height="26" style="fill-opacity:0.1;fill:hsl(45,100%,50%)"></rect><rect x="124" width="124" height="26" style="fill-opacity:0.1;fill:hsl(45,100%,50%)"></rect><rect width="124" height="26" style="fill-opacity:0.1;fill:hsl(45,100%,50%)"></rect></g><g transform="translate(15,-3)"><text x="960">0</text><text x="743">7</text><text x="712">8</text><text x="619">11</text><text x="588">12</text><text x="496">15</text><text x="465">16</text><text x="372">19</text><text x="341">20</text><text x="248">23</text><text x="217">24</text><text x="124">27</text><text x="93">28</text><text>31</text></g><g transform="translate(15,18)"><text x="852"><tspan>opcode</tspan></text><text x="666"><tspan>Sh</tspan></text><text x="542"><tspan>Sw</tspan></text><text x="418"><tspan>Ph</tspan></text><text x="294"><tspan>Pw</tspan></text><text x="170"><tspan>Dh</tspan></text><text x="46"><tspan>Dw</tspan></text></g><g transform="translate(15,39)"><text x="852"><tspan>OP</tspan></text><text x="666"><tspan>Stride H</tspan></text><text x="542"><tspan>Stride W</tspan></text><text x="418"><tspan>Padding H</tspan></text><text x="294"><tspan>Padding W</tspan></text><text x="170"><tspan>Dilation H</tspan></text><text x="46"><tspan>Dilation W</tspan></text></g></g></g><g transform="translate(4,126)"><g stroke="black" stroke-width="1" stroke-linecap="round"><line x2="991"></line><line y2="26"></line><line x2="991" y1="26" y2="26"></line><line x1="991" x2="991" y2="26"></line><line x1="960" x2="960" y2="3"></line><line x1="960" x2="960" y1="26" y2="23"></line><line x1="929" x2="929" y2="3"></line><line x1="929" x2="929" y1="26" y2="23"></line><line x1="898" x2="898" y2="3"></line><line x1="898" x2="898" y1="26" y2="23"></line><line x1="867" x2="867" y2="3"></line><line x1="867" x2="867" y1="26" y2="23"></line><line x1="836" x2="836" y2="3"></line><line x1="836" x2="836" y1="26" y2="23"></line><line x1="805" x2="805" y2="26"></line><line x1="774" x2="774" y2="3"></line><line x1="774" x2="774" y1="26" y2="23"></line><line x1="743" x2="743" y2="3"></line><line x1="743" x2="743" y1="26" y2="23"></line><line x1="712" x2="712" y2="3"></line><line x1="712" x2="712" y1="26" y2="23"></line><line x1="681" x2="681" y2="3"></line><line x1="681" x2="681" y1="26" y2="23"></line><line x1="650" x2="650" y2="3"></line><line x1="650" x2="650" y1="26" y2="23"></line><line x1="619" x2="619" y2="26"></line><line x1="588" x2="588" y2="3"></line><line x1="588" x2="588" y1="26" y2="23"></line><line x1="557" x2="557" y2="3"></line><line x1="557" x2="557" y1="26" y2="23"></line><line x1="526" x2="526" y2="3"></line><line x1="526" x2="526" y1="26" y2="23"></line><line x1="496" x2="496" y2="3"></line><line x1="496" x2="496" y1="26" y2="23"></line><line x1="465" x2="465" y2="3"></line><line x1="465" x2="465" y1="26" y2="23"></line><line x1="434" x2="434" y2="26"></line><line x1="403" x2="403" y2="3"></line><line x1="403" x2="403" y1="26" y2="23"></line><line x1="372" x2="372" y2="3"></line><line x1="372" x2="372" y1="26" y2="23"></line><line x1="341" x2="341" y2="3"></line><line x1="341" x2="341" y1="26" y2="23"></line><line x1="310" x2="310" y2="3"></line><line x1="310" x2="310" y1="26" y2="23"></line><line x1="279" x2="279" y2="3"></line><line x1="279" x2="279" y1="26" y2="23"></line><line x1="248" x2="248" y2="26"></line><line x1="217" x2="217" y2="3"></line><line x1="217" x2="217" y1="26" y2="23"></line><line x1="186" x2="186" y2="3"></line><line x1="186" x2="186" y1="26" y2="23"></line><line x1="155" x2="155" y2="3"></line><line x1="155" x2="155" y1="26" y2="23"></line><line x1="124" x2="124" y2="3"></line><line x1="124" x2="124" y1="26" y2="23"></line><line x1="93" x2="93" y2="3"></line><line x1="93" x2="93" y1="26" y2="23"></line><line x1="62" x2="62" y2="3"></line><line x1="62" x2="62" y1="26" y2="23"></line><line x1="31" x2="31" y2="3"></line><line x1="31" x2="31" y1="26" y2="23"></line></g><g><g><rect x="805" width="186" height="26" style="fill-opacity:0.1;fill:hsl(170,100%,50%)"></rect><rect x="619" width="186" height="26" style="fill-opacity:0.1;fill:hsl(170,100%,50%)"></rect><rect x="434" width="186" height="26" style="fill-opacity:0.1;fill:hsl(170,100%,50%)"></rect><rect x="248" width="186" height="26" style="fill-opacity:0.1;fill:hsl(170,100%,50%)"></rect><rect width="248" height="26" style="fill-opacity:0.1;fill:hsl(80,100%,50%)"></rect></g><g transform="translate(15,-3)"><text x="960">32</text><text x="805">37</text><text x="774">38</text><text x="619">43</text><text x="588">44</text><text x="434">49</text><text x="403">50</text><text x="248">55</text><text x="217">56</text><text>63</text></g><g transform="translate(15,18)"><text x="883"><tspan>y</tspan></text><text x="697"><tspan>x</tspan></text><text x="511"><tspan>y'</tspan></text><text x="325"><tspan>x'</tspan></text><text x="108"><tspan>Hk</tspan></text></g><g transform="translate(15,39)"><text x="883"><tspan>Sub-Ofmap H</tspan></text><text x="697"><tspan>Sub-Ofmap W</tspan></text><text x="511"><tspan>Sub-Ifmap H</tspan></text><text x="325"><tspan>Sub-Ifmap W</tspan></text><text x="108"><tspan>Kernel H</tspan></text></g></g></g><g transform="translate(4,70)"><g stroke="black" stroke-width="1" stroke-linecap="round"><line x2="991"></line><line y2="26"></line><line x2="991" y1="26" y2="26"></line><line x1="991" x2="991" y2="26"></line><line x1="960" x2="960" y2="3"></line><line x1="960" x2="960" y1="26" y2="23"></line><line x1="929" x2="929" y2="3"></line><line x1="929" x2="929" y1="26" y2="23"></line><line x1="898" x2="898" y2="3"></line><line x1="898" x2="898" y1="26" y2="23"></line><line x1="867" x2="867" y2="3"></line><line x1="867" x2="867" y1="26" y2="23"></line><line x1="836" x2="836" y2="3"></line><line x1="836" x2="836" y1="26" y2="23"></line><line x1="805" x2="805" y2="3"></line><line x1="805" x2="805" y1="26" y2="23"></line><line x1="774" x2="774" y2="3"></line><line x1="774" x2="774" y1="26" y2="23"></line><line x1="743" x2="743" y2="26"></line><line x1="712" x2="712" y2="3"></line><line x1="712" x2="712" y1="26" y2="23"></line><line x1="681" x2="681" y2="3"></line><line x1="681" x2="681" y1="26" y2="23"></line><line x1="650" x2="650" y2="3"></line><line x1="650" x2="650" y1="26" y2="23"></line><line x1="619" x2="619" y2="3"></line><line x1="619" x2="619" y1="26" y2="23"></line><line x1="588" x2="588" y2="3"></line><line x1="588" x2="588" y1="26" y2="23"></line><line x1="557" x2="557" y2="3"></line><line x1="557" x2="557" y1="26" y2="23"></line><line x1="526" x2="526" y2="3"></line><line x1="526" x2="526" y1="26" y2="23"></line><line x1="496" x2="496" y2="26"></line><line x1="465" x2="465" y2="3"></line><line x1="465" x2="465" y1="26" y2="23"></line><line x1="434" x2="434" y2="3"></line><line x1="434" x2="434" y1="26" y2="23"></line><line x1="403" x2="403" y2="3"></line><line x1="403" x2="403" y1="26" y2="23"></line><line x1="372" x2="372" y2="3"></line><line x1="372" x2="372" y1="26" y2="23"></line><line x1="341" x2="341" y2="3"></line><line x1="341" x2="341" y1="26" y2="23"></line><line x1="310" x2="310" y2="3"></line><line x1="310" x2="310" y1="26" y2="23"></line><line x1="279" x2="279" y2="3"></line><line x1="279" x2="279" y1="26" y2="23"></line><line x1="248" x2="248" y2="26"></line><line x1="217" x2="217" y2="3"></line><line x1="217" x2="217" y1="26" y2="23"></line><line x1="186" x2="186" y2="3"></line><line x1="186" x2="186" y1="26" y2="23"></line><line x1="155" x2="155" y2="3"></line><line x1="155" x2="155" y1="26" y2="23"></line><line x1="124" x2="124" y2="3"></line><line x1="124" x2="124" y1="26" y2="23"></line><line x1="93" x2="93" y2="3"></line><line x1="93" x2="93" y1="26" y2="23"></line><line x1="62" x2="62" y2="3"></line><line x1="62" x2="62" y1="26" y2="23"></line><line x1="31" x2="31" y2="3"></line><line x1="31" x2="31" y1="26" y2="23"></line></g><g><g><rect x="743" width="248" height="26" style="fill-opacity:0.1;fill:hsl(80,100%,50%)"></rect><rect x="496" width="248" height="26" style="fill-opacity:0.1;fill:hsl(80,100%,50%)"></rect><rect x="248" width="248" height="26" style="fill-opacity:0.1;fill:hsl(80,100%,50%)"></rect><rect width="248" height="26" style="fill-opacity:0.1;fill:hsl(0,100%,50%)"></rect></g><g transform="translate(15,-3)"><text x="960">64</text><text x="743">71</text><text x="712">72</text><text x="496">79</text><text x="465">80</text><text x="248">87</text><text x="217">88</text><text>95</text></g><g transform="translate(15,18)"><text x="852"><tspan>Wk</tspan></text><text x="604"><tspan>Ho</tspan></text><text x="356"><tspan>Wo</tspan></text><text x="108"><tspan>Co</tspan></text></g><g transform="translate(15,39)"><text x="852"><tspan>Kernel W</tspan></text><text x="604"><tspan>Ofmap H</tspan></text><text x="356"><tspan>Ofmap W</tspan></text><text x="108"><tspan>Out-Channal Num</tspan></text></g></g></g><g transform="translate(4,14)"><g stroke="black" stroke-width="1" stroke-linecap="round"><line x2="991"></line><line y2="26"></line><line x2="991" y1="26" y2="26"></line><line x1="991" x2="991" y2="26"></line><line x1="960" x2="960" y2="3"></line><line x1="960" x2="960" y1="26" y2="23"></line><line x1="929" x2="929" y2="3"></line><line x1="929" x2="929" y1="26" y2="23"></line><line x1="898" x2="898" y2="3"></line><line x1="898" x2="898" y1="26" y2="23"></line><line x1="867" x2="867" y2="3"></line><line x1="867" x2="867" y1="26" y2="23"></line><line x1="836" x2="836" y2="3"></line><line x1="836" x2="836" y1="26" y2="23"></line><line x1="805" x2="805" y2="3"></line><line x1="805" x2="805" y1="26" y2="23"></line><line x1="774" x2="774" y2="3"></line><line x1="774" x2="774" y1="26" y2="23"></line><line x1="743" x2="743" y2="26"></line><line x1="712" x2="712" y2="3"></line><line x1="712" x2="712" y1="26" y2="23"></line><line x1="681" x2="681" y2="3"></line><line x1="681" x2="681" y1="26" y2="23"></line><line x1="650" x2="650" y2="3"></line><line x1="650" x2="650" y1="26" y2="23"></line><line x1="619" x2="619" y2="3"></line><line x1="619" x2="619" y1="26" y2="23"></line><line x1="588" x2="588" y2="3"></line><line x1="588" x2="588" y1="26" y2="23"></line><line x1="557" x2="557" y2="3"></line><line x1="557" x2="557" y1="26" y2="23"></line><line x1="526" x2="526" y2="3"></line><line x1="526" x2="526" y1="26" y2="23"></line><line x1="496" x2="496" y2="3"></line><line x1="496" x2="496" y1="26" y2="23"></line><line x1="465" x2="465" y2="3"></line><line x1="465" x2="465" y1="26" y2="23"></line><line x1="434" x2="434" y2="3"></line><line x1="434" x2="434" y1="26" y2="23"></line><line x1="403" x2="403" y2="3"></line><line x1="403" x2="403" y1="26" y2="23"></line><line x1="372" x2="372" y2="3"></line><line x1="372" x2="372" y1="26" y2="23"></line><line x1="341" x2="341" y2="3"></line><line x1="341" x2="341" y1="26" y2="23"></line><line x1="310" x2="310" y2="3"></line><line x1="310" x2="310" y1="26" y2="23"></line><line x1="279" x2="279" y2="3"></line><line x1="279" x2="279" y1="26" y2="23"></line><line x1="248" x2="248" y2="3"></line><line x1="248" x2="248" y1="26" y2="23"></line><line x1="217" x2="217" y2="3"></line><line x1="217" x2="217" y1="26" y2="23"></line><line x1="186" x2="186" y2="3"></line><line x1="186" x2="186" y1="26" y2="23"></line><line x1="155" x2="155" y2="3"></line><line x1="155" x2="155" y1="26" y2="23"></line><line x1="124" x2="124" y2="3"></line><line x1="124" x2="124" y1="26" y2="23"></line><line x1="93" x2="93" y2="3"></line><line x1="93" x2="93" y1="26" y2="23"></line><line x1="62" x2="62" y2="3"></line><line x1="62" x2="62" y1="26" y2="23"></line><line x1="31" x2="31" y2="3"></line><line x1="31" x2="31" y1="26" y2="23"></line></g><g><g><rect x="743" width="248" height="26" style="fill-opacity:0.1;fill:hsl(0,100%,50%)"></rect><rect x="496" width="248" height="26" style="fill-opacity:0.1;fill:hsl(0,100%,50%)"></rect></g><g transform="translate(15,-3)"><text x="960">96</text><text x="743">103</text><text x="712">104</text><text x="496">111</text></g><g transform="translate(15,18)"><text x="852"><tspan>Ci</tspan></text><text x="604"><tspan>Zs</tspan></text></g><g transform="translate(15,39)"><text x="852"><tspan>In-Channal Num</tspan></text><text x="604"><tspan>Out-Channals in PE</tspan></text></g></g></g></g></svg>